<svg width="256" height="256" viewBox="0 0 256 256" fill="none" xmlns="http://www.w3.org/2000/svg">
<path d="M0 18.3382C0 8.21301 8.4162 0 18.7986 0H237.201C247.583 0 256 8.21304 256 18.3382V237.662C256 247.79 247.583 256 237.201 256L18.7986 256C8.4162 256 0 247.79 0 237.662V18.3382ZM79.0941 214.298V98.7002H40.6713V214.298H79.0941ZM59.8825 82.9172C73.2813 82.9172 81.6209 74.0405 81.6209 62.9473C81.3712 51.6043 73.2813 42.9739 60.1367 42.9739C46.9935 42.9739 38.4 51.6043 38.4 62.9473C38.4 74.0405 46.7379 82.9172 59.6321 82.9172H59.8825ZM138.422 214.298V149.743C138.422 146.289 138.672 142.837 139.687 140.367C142.464 133.465 148.786 126.315 159.401 126.315C173.304 126.315 178.866 136.916 178.866 152.456V214.298H217.285V148.016C217.285 112.509 198.329 95.9876 173.05 95.9876C152.668 95.9876 143.53 107.19 138.423 115.067V115.465H138.167C138.251 115.333 138.337 115.2 138.423 115.067V98.7002H100.001C100.505 109.547 100.001 214.298 100.001 214.298H138.422Z" fill="black"/>
</svg>
