<svg width="256" height="256" viewBox="0 0 256 256" fill="none" xmlns="http://www.w3.org/2000/svg">
<path d="M80.4162 240C177.018 240 229.878 159.953 229.878 90.6535C229.878 88.4016 229.878 86.1496 229.775 83.8976C240.019 76.5276 248.932 67.2126 256 56.6693C246.575 60.8661 236.434 63.6299 225.78 64.9606C236.639 58.5118 244.936 48.1732 248.932 35.8898C238.79 41.9291 227.521 46.2283 215.536 48.5827C205.906 38.3465 192.282 32 177.223 32C148.232 32 124.671 55.5433 124.671 84.5118C124.671 88.6063 125.183 92.5984 126.002 96.4882C82.3626 94.3386 43.6399 73.3543 17.7223 41.622C13.2149 49.4016 10.6539 58.4095 10.6539 68.0315C10.6539 86.252 19.976 102.323 34.0104 111.74C25.4054 111.433 17.3125 109.079 10.2441 105.189C10.2441 105.394 10.2441 105.598 10.2441 105.906C10.2441 131.291 28.3761 152.583 52.3473 157.394C47.9424 158.622 43.3325 159.236 38.5178 159.236C35.1373 159.236 31.8591 158.929 28.6835 158.315C35.3421 179.197 54.8059 194.346 77.7527 194.756C59.7231 208.882 37.0836 217.276 12.4978 217.276C8.29772 217.276 4.09764 217.071 0 216.559C23.1517 231.299 50.8107 240 80.4162 240Z" fill="black"/>
</svg>
